<svg xmlns="http://www.w3.org/2000/svg" width="26.5" height="26.5" viewBox="0 0 26.5 26.5"><g transform="translate(-0.75 -0.75)"><path d="M14,27A13,13,0,1,1,27,14,13,13,0,0,1,14,27ZM14,2.733A11.267,11.267,0,1,0,25.267,14,11.267,11.267,0,0,0,14,2.733Z" fill="#fcfcfc" stroke="#fff" stroke-width="0.5"/><path d="M12.264,22a.681.681,0,0,1-.548-.32l-3.5-5a1.251,1.251,0,0,1,.071-1.362.621.621,0,0,1,1.024,0l2.955,4.21,6.45-9.21a.66.66,0,0,1,.734-.35.886.886,0,0,1,.57.708,1.232,1.232,0,0,1-.209,1l-7,10A.681.681,0,0,1,12.264,22Z" transform="translate(0 -1.994)" fill="#fcfcfc" stroke="#fff" stroke-width="0.5"/></g></svg>