<svg xmlns="http://www.w3.org/2000/svg" xmlns:xlink="http://www.w3.org/1999/xlink" width="27" height="27.001" viewBox="0 0 27 27.001"><defs><linearGradient id="a" x1="10.797" y1="1.42" x2="13.574" y2="1.42" gradientUnits="objectBoundingBox"><stop offset="0" stop-color="#ed2224"/><stop offset="1" stop-color="#ed2224"/></linearGradient><linearGradient id="b" x1="4.68" y1="-7.619" x2="5.68" y2="-7.619" gradientUnits="objectBoundingBox"><stop offset="0" stop-color="#1a4697"/><stop offset="1" stop-color="#3150a3"/></linearGradient></defs><g transform="translate(-32 -163.995)"><g transform="translate(32 163.995)"><path d="M63.136,14.976A13.5,13.5,0,0,0,54.428,2.134V27.818A13.5,13.5,0,0,0,63.136,14.976Z" transform="translate(-36.136 -1.476)" fill="url(#a)"/><path d="M0,14.976A13.5,13.5,0,0,0,8.708,27.818V2.134A13.5,13.5,0,0,0,0,14.976Z" transform="translate(0 -1.476)" fill="url(#b)"/><path d="M32.266,27a12.085,12.085,0,0,0,4.043-.7V.7a12.069,12.069,0,0,0-8.085,0V26.3A12.09,12.09,0,0,0,32.266,27Z" transform="translate(-18.766 0)" fill="#f9f9f9"/></g></g></svg>