<?xml version="1.0" encoding="utf-8"?>
<!-- Generator: Adobe Illustrator 24.0.1, SVG Export Plug-In . SVG Version: 6.00 Build 0)  -->
<svg version="1.1" id="Layer_1" xmlns="http://www.w3.org/2000/svg" xmlns:xlink="http://www.w3.org/1999/xlink" x="0px" y="0px"
	 viewBox="0 0 98 112" style="enable-background:new 0 0 98 112;" xml:space="preserve">
<style type="text/css">
	.st0{fill:#FFFFFF;}
	.st1{opacity:0.24;}
	.st2{fill:none;}
</style>
<g>
	<rect x="-237.1" y="-3.2" class="st0" width="2.8" height="21.7"/>
	<rect x="-232.2" y="-6" class="st0" width="2.8" height="21.7"/>
	<rect x="-227.6" y="-8.8" class="st0" width="3.1" height="21.7"/>
	<rect x="-222.4" y="-11.5" class="st0" width="2.8" height="21.7"/>
	<rect x="-217.5" y="-14.3" class="st0" width="2.8" height="21.7"/>
	<rect x="-213" y="-17.1" class="st0" width="3.1" height="21.7"/>
	<rect x="-207.7" y="-19.6" class="st0" width="3.1" height="21.3"/>
	<g transform="translate(6 3)" class="st1">
		<rect x="-241" y="-4.8" class="st0" width="2.4" height="21.3"/>
		<rect x="-236.8" y="-7.6" class="st0" width="2.8" height="21.3"/>
		<rect x="-231.9" y="-10.4" class="st0" width="3.1" height="21.3"/>
		<rect x="-226.6" y="-13.2" class="st0" width="2.8" height="21.3"/>
		<rect x="-222.1" y="-15.9" class="st0" width="2.8" height="21.3"/>
		<rect x="-217.2" y="-18.7" class="st0" width="3.1" height="21.3"/>
		<rect x="-212" y="-21.5" class="st0" width="3.1" height="21.3"/>
	</g>
</g>
<rect x="-257.5" y="-32.2" class="st2" width="75.1" height="75.1"/>
<text transform="matrix(1 0 0 1 -233.2441 28.1289)" class="st0" style="font-family:'MyriadPro-Regular'; font-size:7.684px;">BREAKIT</text>
<text transform="matrix(1 0 0 1 -243.04 34.751)" style="fill:#F7FCFD; font-family:'MyriadPro-Regular'; font-size:3.842px;">Break Free Of Your Addiction</text>
</svg>
