<svg xmlns="http://www.w3.org/2000/svg" width="24" height="24.201" viewBox="0 0 24 24.201"><g transform="translate(-54.13 -55.53)"><path d="M64.5,124.748A10.374,10.374,0,1,1,64.5,104a.885.885,0,0,1,.885.885v8.6h8.6a.885.885,0,0,1,.885.885A10.385,10.385,0,0,1,64.5,124.748Zm-.885-18.935a8.606,8.606,0,1,0,9.444,9.446H64.5a.885.885,0,0,1-.885-.885Z" transform="translate(0 -45.018)" fill="#fff"/><path d="M272.016,65.415h-9.887a.9.9,0,0,1-.9-.9V54.629a.9.9,0,0,1,.9-.9,10.8,10.8,0,0,1,10.786,10.786A.9.9,0,0,1,272.016,65.415Zm-8.987-1.8h8.043a9,9,0,0,0-8.043-8.043Z" transform="translate(-194.785 1.8)" fill="#fff"/></g></svg>