<svg xmlns="http://www.w3.org/2000/svg" width="26" height="26" viewBox="0 0 26 26"><g transform="translate(-1 -1)"><path d="M14,27A13,13,0,1,1,27,14,13,13,0,0,1,14,27ZM14,2.733A11.267,11.267,0,1,0,25.267,14,11.267,11.267,0,0,0,14,2.733Z" transform="translate(0 0)" fill="#fff"/><path d="M22.909,17.18H11.174a1.093,1.093,0,1,1,0-2.18H22.909a1.093,1.093,0,1,1,0,2.18Z" transform="translate(-3.041 -2.09)" fill="#fff"/><path d="M22.909,12.18H11.174a1.093,1.093,0,1,1,0-2.18H22.909a1.093,1.093,0,1,1,0,2.18Z" transform="translate(-3.041 -1.344)" fill="#fff"/><path d="M22.909,22.18H11.174a1.093,1.093,0,1,1,0-2.18H22.909a1.093,1.093,0,1,1,0,2.18Z" transform="translate(-3.041 -2.837)" fill="#fff"/></g></svg>