<svg xmlns="http://www.w3.org/2000/svg" width="24" height="24" viewBox="0 0 24 24"><g transform="translate(-1.987 -2)"><g transform="translate(1.987 2)"><path d="M13.993,26A12,12,0,0,1,3.324,8.51a.857.857,0,1,1,1.524.784A10.3,10.3,0,1,0,6.723,6.727.857.857,0,0,1,5.512,5.515a12,12,0,0,1,16.962,16.97A11.908,11.908,0,0,1,13.993,26Z" transform="translate(-1.987 -2)" fill="#9e00ec"/></g><g transform="translate(12.515 5.571)"><path d="M21,21a.994.994,0,0,1-.624-.219l-5-4A1,1,0,0,1,15,16V8a1,1,0,0,1,2,0v7.52l4.625,3.7A1,1,0,0,1,21,21Z" transform="translate(-15 -7)" fill="#9e00ec"/></g></g></svg>