<svg id="Layer_1" data-name="Layer 1" xmlns="http://www.w3.org/2000/svg" viewBox="0 0 175.05 174.68"><title>uk_icon</title><circle cx="87.52" cy="87.61" r="87.05" fill="#f2f2f2"/><path d="M-271,270.25c11,0,22-.12,33,.08,3.3.06,4.15-.93,4.13-4.17-.14-21.65,0-43.3-.17-64.94,0-4,1-5.16,4.67-6.05a29.27,29.27,0,0,1,14,.13c3.54.93,5.56,1.95,5.48,6.63-.33,21.14,0,42.3-.27,63.44-.07,4.63,1.35,5.56,5.58,5.35,21.3-1,42.62-.13,63.92-.56,3.88-.08,4.88,1.33,4.88,4.84,0,4.81.22,9.63.13,14.46-.08,3.82-1.15,5-5.12,5-21.32-.2-42.64.05-63.95-.21-4.5-.06-5.47,1.21-5.42,5.54.23,21.48,0,43,.21,64.44.05,4.11-1.51,3.85-5.06,4.51a39.16,39.16,0,0,1-7.35.32,73.83,73.83,0,0,1-7.59-.17c-3.67-.38-4-.95-4-4.08.13-21.48-.15-43,.22-64.44.09-5.34-1.6-6.17-6.38-6.12-21.32.26-42.64,0-64,.21-4,0-4.85-1.31-5.86-5a24.77,24.77,0,0,1-.74-7.25A25.66,25.66,0,0,1-310,275c1.12-4.06,2.35-4.87,6.05-4.8C-292.95,270.39-282,270.25-271,270.25Z" transform="translate(310.71 -194.39)" fill="#ce152c"/><path d="M-240,302.73c0,21.24-.06,41.56,0,61.87,0,3.07-.67,3.4-3.64,2.69-19.16-4.59-34.61-14.89-47.28-29.76-2.37-2.78-2.55-4.18,1.05-6.19C-273.38,322.11-257.07,312.55-240,302.73Z" transform="translate(310.71 -194.39)" fill="#02267e"/><path d="M-204.09,302.77c17.14,9.88,33.48,19.33,49.86,28.7,2.1,1.19,2.38,2.1.82,4.11a86.17,86.17,0,0,1-47.22,31.33c-2.39.64-3.54.45-3.52-2.58C-204,344.08-204.09,323.83-204.09,302.77Z" transform="translate(310.71 -194.39)" fill="#02267e"/><path d="M-240,260-278,238.13c-3-1.74-6.05-3.45-9.06-5.2-5.85-3.4-5.81-3.37-1.13-8.68,12-13.64,26.93-22.37,44.48-26.77,1.48-.37,3.68-1.84,3.68,1.68C-240.07,219.2-240,239.24-240,260Z" transform="translate(310.71 -194.39)" fill="#02267e"/><path d="M-204.1,260c0-20.67,0-40.29,0-59.92,0-2.52.54-3,3.1-2.33a86.07,86.07,0,0,1,46.47,30c1,1.26,2.35,2.41-.14,3.82C-170.95,240.85-187.15,250.23-204.1,260Z" transform="translate(310.71 -194.39)" fill="#02267e"/><path d="M-246.92,263a29.28,29.28,0,0,1-22.42-4.6c-8.75-5.73-18.06-10.61-27.16-15.79-2.06-1.17-3.46-2-1.74-4.83,1.6-2.66,2.83-2.93,5.41-1.41C-277.8,245.16-262.69,253.85-246.92,263Z" transform="translate(310.71 -194.39)" fill="#ce152c"/><path d="M-196.59,262.54c14.92-8.6,29.89-17.1,44.71-25.88,3.09-1.83,3.54.29,4.77,2,1.41,1.92,1.09,3-1,4.23-11.26,6.37-22.41,13-33.67,19.32C-186.42,264.78-191.51,262.88-196.59,262.54Z" transform="translate(310.71 -194.39)" fill="#ce152c"/><path d="M-196.51,299.52c7.42-1.09,14.1,0,20.62,4.26,9,5.88,18.56,10.92,27.92,16.25,2.08,1.19,3.57,2.1,1.79,4.86-1.5,2.32-2.4,3.18-5.28,1.47-14.09-8.39-28.39-16.45-42.57-24.68C-194.94,301.16-196.31,301-196.51,299.52Z" transform="translate(310.71 -194.39)" fill="#ce152c"/><path d="M-247.69,300.23q-23.62,13.66-47.24,27.36c-2.55,1.48-3.06-.56-4.09-2-1.24-1.73-1.61-3.1.67-4.4,12.39-7.05,24.64-14.36,37.17-21.17C-257.2,297.86-252.43,299.6-247.69,300.23Z" transform="translate(310.71 -194.39)" fill="#ce152c"/><path d="M-273.68,300.18q-13.89,8-27.75,16c-1.3.76-2,.72-2.6-.84a79.89,79.89,0,0,1-4.11-13.8c-.31-1.81.25-2.35,2-2.34,10.72.05,21.44,0,32.15,0Z" transform="translate(310.71 -194.39)" fill="#02267e"/><path d="M-274.34,263.41c-10.4,0-20.8,0-31.2,0-2,0-2.79-.66-2.23-2.64.09-.32.2-.63.27-1,3.35-14.89,3.35-14.89,16.3-7.37q8.55,5,17.11,9.89Z" transform="translate(310.71 -194.39)" fill="#02267e"/><path d="M-170.38,299.23c10.09,0,20.18,0,30.27,0,2.33,0,3.07.31,2.5,3.05-3.15,15.21-3.06,15.23-16.33,7.53l-16.7-9.71Z" transform="translate(310.71 -194.39)" fill="#02267e"/><path d="M-170.52,262.59c8.43-4.87,16.9-9.69,25.27-14.66,2.15-1.27,2.68-.34,3.52,1.49,6.2,13.53,5.94,14-8.57,14h-19.89Z" transform="translate(310.71 -194.39)" fill="#02267e"/><rect x="0.48" y="0.48" width="174.08" height="174.08" fill="none"/></svg>